<mxfile host="app.diagrams.net" modified="2022-09-01T03:16:12.295Z" agent="5.0 (Windows NT 10.0; Win64; x64) AppleWebKit/537.36 (KHTML, like Gecko) Chrome/104.0.0.0 Safari/537.36" etag="rHzoDkWXmkhEF4cRQ0JH" version="20.2.2" type="github">
  <diagram id="R2lEEEUBdFMjLlhIrx00" name="Inicio_Proyecto">
    <mxGraphModel dx="1038" dy="615" grid="1" gridSize="10" guides="1" tooltips="1" connect="1" arrows="1" fold="1" page="1" pageScale="1" pageWidth="850" pageHeight="1100" math="0" shadow="0" extFonts="Permanent Marker^https://fonts.googleapis.com/css?family=Permanent+Marker">
      <root>
        <mxCell id="0" />
        <mxCell id="1" parent="0" />
        <mxCell id="FvFSlekBFBbHEcj_9d9e-1" value="Proyecto:&lt;br style=&quot;font-size: 22px;&quot;&gt;Entidades&lt;br style=&quot;font-size: 22px;&quot;&gt;BlogPost" style="text;html=1;strokeColor=none;fillColor=none;align=center;verticalAlign=middle;whiteSpace=wrap;rounded=0;fontSize=22;" vertex="1" parent="1">
          <mxGeometry x="50" width="110" height="80" as="geometry" />
        </mxCell>
        <mxCell id="FvFSlekBFBbHEcj_9d9e-2" value="POST:&amp;nbsp;&lt;br&gt;Titulo&amp;nbsp;&lt;br&gt;Fecha de publicacion&lt;br&gt;Contenido&lt;br&gt;Estatus&lt;br&gt;Etiquetas (multivaluado)&lt;br&gt;IdPost" style="rounded=0;whiteSpace=wrap;html=1;" vertex="1" parent="1">
          <mxGeometry x="35" y="100" width="140" height="110" as="geometry" />
        </mxCell>
        <mxCell id="FvFSlekBFBbHEcj_9d9e-3" value="USUARIOS:&amp;nbsp;&lt;br&gt;Login&lt;br&gt;Password&lt;br&gt;Nickname&lt;br&gt;Email&amp;nbsp;&lt;br&gt;IdUsuario" style="rounded=0;whiteSpace=wrap;html=1;" vertex="1" parent="1">
          <mxGeometry x="45" y="220" width="120" height="90" as="geometry" />
        </mxCell>
        <mxCell id="FvFSlekBFBbHEcj_9d9e-4" value="CATEGORIAS:&amp;nbsp;&lt;br&gt;Nombre categoria&lt;br&gt;IdCategoria" style="rounded=0;whiteSpace=wrap;html=1;" vertex="1" parent="1">
          <mxGeometry x="45" y="320" width="120" height="60" as="geometry" />
        </mxCell>
        <mxCell id="FvFSlekBFBbHEcj_9d9e-5" value="COMENTARIOS:&amp;nbsp;&lt;br&gt;Contenido&amp;nbsp;&lt;br&gt;Fecha de publicacion&lt;br&gt;IdComentario&lt;br&gt;IdUsuario (clave foranea)" style="rounded=0;whiteSpace=wrap;html=1;" vertex="1" parent="1">
          <mxGeometry x="45" y="390" width="120" height="93" as="geometry" />
        </mxCell>
        <mxCell id="FvFSlekBFBbHEcj_9d9e-6" value="Proyecto&amp;nbsp;&lt;br&gt;REGGAE" style="text;html=1;strokeColor=none;fillColor=none;align=center;verticalAlign=middle;whiteSpace=wrap;rounded=0;fontSize=22;" vertex="1" parent="1">
          <mxGeometry x="388" y="3" width="110" height="80" as="geometry" />
        </mxCell>
        <mxCell id="FvFSlekBFBbHEcj_9d9e-7" value="GENEROS:&lt;br&gt;Nombre genero&lt;br&gt;Ritmo&lt;br&gt;IdGenero" style="rounded=0;whiteSpace=wrap;html=1;" vertex="1" parent="1">
          <mxGeometry x="373" y="103" width="140" height="77" as="geometry" />
        </mxCell>
        <mxCell id="FvFSlekBFBbHEcj_9d9e-8" value="Agrupaciones:&lt;br&gt;NombreArtista&lt;br&gt;Ciudad&lt;br&gt;Pais&lt;br&gt;Año Creacion&lt;br&gt;Numero integrantes&lt;br&gt;IdArtista" style="rounded=0;whiteSpace=wrap;html=1;" vertex="1" parent="1">
          <mxGeometry x="383" y="200" width="120" height="100" as="geometry" />
        </mxCell>
        <mxCell id="FvFSlekBFBbHEcj_9d9e-9" value="Albumes:&lt;br&gt;Nombre Album&lt;br&gt;Año de lanzamiento&lt;br&gt;IdAlbum" style="rounded=0;whiteSpace=wrap;html=1;" vertex="1" parent="1">
          <mxGeometry x="383" y="323" width="120" height="60" as="geometry" />
        </mxCell>
        <mxCell id="FvFSlekBFBbHEcj_9d9e-10" value="Canciones:&amp;nbsp;&lt;br&gt;Nombre Cancion&lt;br&gt;Duracion&amp;nbsp;&lt;br&gt;Lyrics&lt;br&gt;IdCancion" style="rounded=0;whiteSpace=wrap;html=1;" vertex="1" parent="1">
          <mxGeometry x="383" y="393" width="120" height="93" as="geometry" />
        </mxCell>
      </root>
    </mxGraphModel>
  </diagram>
</mxfile>
